<svg width="240" height="344" viewBox="0 0 240 344" fill="none" xmlns="http://www.w3.org/2000/svg">
<path d="M31.4915 303.743C28.8382 303.743 26.3264 303.336 23.9562 302.522C21.5859 301.673 19.481 300.471 17.6414 298.914C15.8372 297.357 14.4044 295.5 13.3431 293.342C12.3172 291.149 11.8042 288.725 11.8042 286.072C11.8042 283.596 12.3172 281.261 13.3431 279.068C14.369 276.874 15.8195 274.928 17.6945 273.23C19.5694 271.532 21.7982 270.206 24.3807 269.25C26.9986 268.26 29.8641 267.765 32.9773 267.765C34.1801 267.765 35.3122 267.853 36.3735 268.03C37.4702 268.171 38.5315 268.366 39.5574 268.614C40.5833 268.826 41.5916 269.109 42.5821 269.463C42.9713 269.604 43.272 269.799 43.4842 270.046C43.7319 270.294 43.8734 270.63 43.9087 271.055C44.0503 272.116 44.1564 273.177 44.2271 274.239C44.2979 275.265 44.3333 276.29 44.3333 277.316C44.3686 277.67 44.2448 277.935 43.9618 278.112C43.6788 278.254 43.3781 278.272 43.0597 278.165C42.7413 278.024 42.5114 277.759 42.3699 277.369C42.0868 276.379 41.7508 275.459 41.3616 274.61C41.0078 273.726 40.4595 272.983 39.7166 272.381C38.9029 271.709 37.877 271.178 36.6388 270.789C35.4006 270.365 33.9502 270.153 32.2874 270.153C30.3771 270.153 28.6436 270.542 27.087 271.32C25.5305 272.098 24.1861 273.177 23.0541 274.557C21.9574 275.937 21.1083 277.493 20.5069 279.227C19.9055 280.96 19.6048 282.782 19.6048 284.692C19.6048 286.957 19.8702 289.097 20.4008 291.113C20.9668 293.13 21.7982 294.916 22.8949 296.473C24.0269 297.994 25.3889 299.197 26.9809 300.081C28.5729 300.93 30.3948 301.355 32.4466 301.355C35.0645 301.355 37.1871 300.789 38.8145 299.657C40.4418 298.525 41.8215 296.844 42.9536 294.616C43.2366 294.05 43.6257 293.784 44.121 293.82C44.6163 293.82 44.8639 294.103 44.8639 294.669C44.8639 295.093 44.8109 295.624 44.7047 296.261C44.5986 296.897 44.4394 297.587 44.2271 298.33C44.0503 299.038 43.838 299.745 43.5904 300.453C43.4488 300.877 43.272 301.196 43.0597 301.408C42.8474 301.62 42.529 301.815 42.1045 301.992C40.7602 302.558 39.1682 302.982 37.3286 303.265C35.5244 303.584 33.5787 303.743 31.4915 303.743ZM67.575 303.743C65.1694 303.743 62.8699 303.336 60.6766 302.522C58.4832 301.673 56.5375 300.488 54.8394 298.967C53.1767 297.41 51.85 295.571 50.8595 293.448C49.9043 291.29 49.4267 288.902 49.4267 286.284C49.4267 283.879 49.8159 281.579 50.5941 279.386C51.4078 277.157 52.5929 275.176 54.1495 273.443C55.7415 271.709 57.6872 270.329 59.9867 269.304C62.3216 268.278 65.0102 267.765 68.0526 267.765C70.4583 267.765 72.7401 268.189 74.8981 269.038C77.0914 269.852 79.0372 271.037 80.7353 272.594C82.4333 274.115 83.76 275.954 84.7152 278.112C85.7057 280.235 86.201 282.605 86.201 285.223C86.201 287.593 85.7941 289.893 84.9805 292.122C84.2022 294.35 83.0171 296.331 81.4251 298.065C79.8685 299.798 77.9228 301.178 75.5879 302.204C73.2884 303.23 70.6175 303.743 67.575 303.743ZM68.4772 301.408C70.7059 301.408 72.5632 300.842 74.049 299.71C75.5702 298.578 76.7023 297.004 77.4452 294.987C78.2235 292.935 78.6126 290.583 78.6126 287.929C78.6126 285.665 78.3827 283.472 77.9228 281.349C77.4629 279.227 76.7554 277.334 75.8002 275.671C74.845 273.973 73.6422 272.629 72.1917 271.638C70.7767 270.648 69.0786 270.153 67.0975 270.153C64.8687 270.153 62.9937 270.719 61.4725 271.851C59.9867 272.983 58.8723 274.557 58.1294 276.573C57.3865 278.59 57.015 280.925 57.015 283.578C57.015 285.842 57.245 288.036 57.7049 290.158C58.1648 292.281 58.8546 294.191 59.7744 295.889C60.7296 297.587 61.9147 298.932 63.3298 299.922C64.7803 300.913 66.4961 301.408 68.4772 301.408ZM108.103 303.371C107.148 303.371 105.998 303.336 104.654 303.265C103.31 303.195 101.948 303.124 100.568 303.053C99.2237 303.018 98.1093 303 97.2249 303C96.5173 303 95.7921 303 95.0492 303C94.3417 303.035 93.5988 303.071 92.8205 303.106C92.0422 303.177 91.2108 303.212 90.3264 303.212C90.008 303.212 89.725 303.142 89.4773 303C89.2297 302.894 89.1059 302.717 89.1059 302.469C89.1059 302.151 89.212 301.921 89.4243 301.779C89.6719 301.638 90.0257 301.532 90.4856 301.461C91.8299 301.178 92.7497 300.789 93.245 300.294C93.7403 299.798 93.9879 298.967 93.9879 297.8V273.814C93.9879 272.611 93.7403 271.762 93.245 271.267C92.7851 270.772 91.8653 270.383 90.4856 270.099C90.0257 270.029 89.6719 269.923 89.4243 269.781C89.212 269.604 89.1059 269.357 89.1059 269.038C89.1059 268.791 89.2297 268.614 89.4773 268.508C89.725 268.366 90.008 268.295 90.3264 268.295C91.1754 268.295 91.9891 268.313 92.7674 268.348C93.5457 268.348 94.3063 268.384 95.0492 268.454C95.8275 268.49 96.6058 268.508 97.3841 268.508C97.9147 268.508 98.6223 268.49 99.5067 268.454C100.426 268.384 101.399 268.331 102.425 268.295C103.487 268.225 104.477 268.171 105.397 268.136C106.317 268.065 107.06 268.03 107.626 268.03C110.597 268.03 113.268 268.454 115.639 269.304C118.009 270.153 120.025 271.338 121.688 272.859C123.386 274.38 124.677 276.184 125.562 278.272C126.446 280.359 126.888 282.623 126.888 285.064C126.888 287.505 126.446 289.822 125.562 292.015C124.677 294.209 123.404 296.155 121.741 297.853C120.114 299.551 118.133 300.895 115.798 301.886C113.498 302.876 110.933 303.371 108.103 303.371ZM107.307 300.93C109.854 300.93 112.012 300.329 113.781 299.126C115.585 297.888 116.947 296.172 117.867 293.979C118.787 291.75 119.247 289.185 119.247 286.284C119.247 283.879 118.929 281.703 118.292 279.757C117.69 277.776 116.824 276.114 115.692 274.769C114.595 273.39 113.268 272.328 111.712 271.585C110.191 270.842 108.528 270.471 106.724 270.471C105.45 270.471 104.371 270.506 103.487 270.577C102.638 270.648 101.983 270.86 101.523 271.214C101.099 271.532 100.886 272.081 100.886 272.859V296.208C100.886 297.446 101.152 298.419 101.682 299.126C102.248 299.798 103.009 300.276 103.964 300.559C104.955 300.807 106.069 300.93 107.307 300.93ZM131.013 303.265C130.623 303.265 130.305 303.195 130.057 303.053C129.845 302.912 129.739 302.735 129.739 302.522C129.739 302.063 130.199 301.726 131.119 301.514C132.392 301.196 133.294 300.807 133.825 300.347C134.391 299.851 134.674 299.02 134.674 297.853V273.814C134.674 272.611 134.426 271.762 133.931 271.267C133.471 270.772 132.587 270.383 131.278 270.099C130.783 269.993 130.429 269.852 130.217 269.675C130.004 269.463 129.898 269.25 129.898 269.038C129.898 268.791 130.004 268.614 130.217 268.508C130.464 268.366 130.783 268.295 131.172 268.295C132.198 268.295 133.171 268.313 134.09 268.348C135.046 268.384 135.965 268.419 136.85 268.454C137.734 268.49 138.654 268.508 139.609 268.508C141.236 268.508 142.952 268.49 144.756 268.454C146.596 268.419 148.241 268.401 149.692 268.401C150.859 268.366 151.814 268.313 152.557 268.242C153.335 268.171 153.795 268.136 153.937 268.136C154.184 268.136 154.432 268.189 154.68 268.295C154.963 268.401 155.122 268.614 155.157 268.932C155.299 270.099 155.476 271.249 155.688 272.381C155.9 273.513 156.006 274.504 156.006 275.353C156.006 275.671 155.918 275.919 155.741 276.096C155.6 276.237 155.44 276.308 155.263 276.308C155.087 276.308 154.927 276.255 154.786 276.149C154.644 276.007 154.521 275.813 154.414 275.565C154.131 274.752 153.866 274.044 153.618 273.443C153.371 272.841 153.088 272.381 152.769 272.063C152.309 271.568 151.779 271.178 151.177 270.895C150.576 270.612 149.851 270.471 149.002 270.471H144.067C143.43 270.471 142.846 270.666 142.315 271.055C141.785 271.408 141.52 271.921 141.52 272.594V282.994C141.52 283.384 141.626 283.684 141.838 283.896C142.086 284.109 142.369 284.215 142.687 284.215H147.569C148.524 284.215 149.196 283.95 149.585 283.419C150.01 282.888 150.364 282.163 150.647 281.243C150.894 280.536 151.23 280.182 151.655 280.182C151.832 280.182 151.991 280.288 152.133 280.5C152.274 280.677 152.345 280.925 152.345 281.243C152.309 281.597 152.274 282.022 152.239 282.517C152.203 283.012 152.168 283.507 152.133 284.003C152.133 284.498 152.133 284.94 152.133 285.329C152.133 285.754 152.133 286.231 152.133 286.762C152.168 287.293 152.186 287.823 152.186 288.354C152.221 288.849 152.256 289.274 152.292 289.628C152.327 290.017 152.292 290.317 152.186 290.53C152.115 290.742 151.973 290.848 151.761 290.848C151.195 290.848 150.788 290.353 150.541 289.362C150.258 288.372 149.922 287.629 149.532 287.133C149.143 286.638 148.613 286.391 147.94 286.391H142.952C142.492 286.391 142.139 286.479 141.891 286.656C141.643 286.833 141.52 287.169 141.52 287.664V297.747C141.52 298.914 141.767 299.728 142.262 300.188C142.758 300.647 143.518 300.877 144.544 300.877H148.896C149.78 300.877 150.576 300.789 151.284 300.612C152.026 300.435 152.663 300.152 153.194 299.763C153.795 299.338 154.326 298.772 154.786 298.065C155.281 297.322 155.759 296.508 156.219 295.624C156.36 295.341 156.502 295.164 156.643 295.093C156.785 294.987 156.962 294.934 157.174 294.934C157.351 294.969 157.474 295.076 157.545 295.252C157.651 295.429 157.704 295.624 157.704 295.836C157.704 296.331 157.616 296.968 157.439 297.747C157.262 298.525 157.032 299.338 156.749 300.188C156.502 301.001 156.272 301.762 156.059 302.469C155.953 302.717 155.812 302.894 155.635 303C155.458 303.142 155.246 303.212 154.998 303.212C154.149 303.212 153.052 303.195 151.708 303.159C150.399 303.159 148.966 303.142 147.41 303.106C145.853 303.071 144.261 303.035 142.634 303C141.007 303 139.45 303 137.964 303C137.221 303 136.461 303.018 135.682 303.053C134.939 303.088 134.179 303.124 133.401 303.159C132.622 303.23 131.826 303.265 131.013 303.265ZM192.796 304.114C191.275 304.114 189.948 303.937 188.816 303.584C187.684 303.265 186.711 302.788 185.897 302.151C185.084 301.514 184.341 300.771 183.669 299.922C182.89 298.861 182.13 297.835 181.387 296.844C180.644 295.818 179.883 294.704 179.105 293.501C178.362 292.263 177.531 290.795 176.611 289.097C176.151 288.283 175.567 287.682 174.86 287.293C174.4 287.045 173.922 286.868 173.427 286.762C172.967 286.656 172.578 286.603 172.26 286.603C172.047 286.567 171.888 286.656 171.782 286.868C171.676 287.08 171.623 287.346 171.623 287.664V297.534C171.623 298.631 171.906 299.48 172.472 300.081C173.073 300.683 174.082 301.143 175.497 301.461C175.957 301.532 176.293 301.656 176.505 301.833C176.717 301.974 176.823 302.186 176.823 302.469C176.823 302.717 176.717 302.894 176.505 303C176.328 303.106 176.045 303.159 175.656 303.159C174.842 303.159 174.011 303.124 173.162 303.053C172.313 303.018 171.481 302.982 170.668 302.947C169.889 302.912 169.147 302.894 168.439 302.894C167.661 302.894 166.847 302.912 165.998 302.947C165.184 302.982 164.353 303.035 163.504 303.106C162.655 303.177 161.806 303.212 160.957 303.212C160.638 303.212 160.355 303.142 160.108 303C159.86 302.894 159.736 302.735 159.736 302.522C159.736 301.992 160.178 301.638 161.063 301.461C162.407 301.178 163.362 300.789 163.928 300.294C164.494 299.798 164.777 298.967 164.777 297.8V274.345C164.777 273.319 164.689 272.541 164.512 272.01C164.371 271.444 164.07 271.019 163.61 270.736C163.15 270.453 162.46 270.241 161.54 270.099C161.045 270.029 160.691 269.887 160.479 269.675C160.267 269.463 160.161 269.25 160.161 269.038C160.161 268.791 160.267 268.614 160.479 268.508C160.727 268.366 161.045 268.295 161.434 268.295C162.496 268.295 163.345 268.313 163.981 268.348C164.618 268.384 165.22 268.437 165.786 268.508C166.387 268.543 167.095 268.561 167.908 268.561C168.687 268.561 169.376 268.525 169.978 268.454C170.579 268.384 171.251 268.313 171.994 268.242C172.737 268.171 173.692 268.136 174.86 268.136C178.928 268.136 182.041 268.844 184.199 270.259C186.357 271.674 187.436 273.832 187.436 276.733C187.436 278.325 187.1 279.687 186.428 280.819C185.756 281.915 184.907 282.817 183.881 283.525C182.89 284.233 181.864 284.781 180.803 285.17C180.662 285.205 180.591 285.294 180.591 285.435C180.626 285.577 180.697 285.701 180.803 285.807C181.864 287.434 182.89 288.991 183.881 290.477C184.907 291.927 185.968 293.307 187.065 294.616C188.197 295.925 189.417 297.181 190.726 298.383C191.823 299.409 192.937 300.028 194.07 300.241C195.237 300.417 196.44 300.506 197.678 300.506C198.209 300.506 198.474 300.771 198.474 301.302C198.474 302.009 198.209 302.575 197.678 303C197.147 303.389 196.44 303.672 195.555 303.849C194.706 304.026 193.787 304.114 192.796 304.114ZM173.905 285.064C175.355 285.064 176.558 284.746 177.513 284.109C178.504 283.437 179.247 282.552 179.742 281.455C180.273 280.359 180.538 279.138 180.538 277.794C180.538 276.202 180.343 274.858 179.954 273.761C179.565 272.629 178.893 271.762 177.938 271.161C177.018 270.524 175.744 270.206 174.117 270.206C173.197 270.206 172.56 270.542 172.207 271.214C171.888 271.851 171.711 273.16 171.676 275.141C171.641 275.954 171.623 277.033 171.623 278.378C171.623 279.687 171.623 281.261 171.623 283.101C171.623 283.879 171.817 284.409 172.207 284.692C172.631 284.94 173.197 285.064 173.905 285.064ZM226.075 303.212C225.297 303.212 224.36 303.195 223.263 303.159C222.166 303.159 220.963 303.142 219.654 303.106C218.346 303.106 216.984 303.088 215.568 303.053C214.153 303.053 212.774 303.053 211.429 303.053C210.227 303.053 209.006 303.053 207.768 303.053C206.565 303.088 205.38 303.124 204.212 303.159L200.126 303.212C199.843 303.212 199.649 303.018 199.543 302.629C199.472 302.239 199.454 302.009 199.49 301.939C199.702 301.55 199.967 301.072 200.286 300.506C200.639 299.94 201.011 299.338 201.4 298.702C201.825 298.065 202.214 297.481 202.567 296.951C204.018 294.757 205.415 292.635 206.76 290.583C208.104 288.531 209.431 286.514 210.739 284.533C212.084 282.552 213.428 280.536 214.772 278.484C216.117 276.432 217.479 274.292 218.858 272.063C218.929 271.957 219 271.851 219.071 271.745C219.142 271.603 219.177 271.479 219.177 271.373C219.177 271.232 219.106 271.125 218.965 271.055C218.858 270.949 218.629 270.878 218.275 270.842C217.532 270.842 216.683 270.842 215.728 270.842C214.808 270.807 213.87 270.789 212.915 270.789C212.137 270.789 211.376 270.789 210.633 270.789C209.926 270.789 209.254 270.807 208.617 270.842C207.379 270.878 206.194 271.267 205.062 272.01C203.929 272.753 203.027 273.796 202.355 275.141C202.143 275.53 201.878 275.937 201.559 276.361C201.276 276.75 200.887 276.945 200.392 276.945C200.144 276.945 199.967 276.874 199.861 276.733C199.755 276.556 199.702 276.361 199.702 276.149C199.702 275.937 199.737 275.707 199.808 275.459C199.914 275.176 200.003 274.928 200.073 274.716C200.392 274.009 200.639 273.319 200.816 272.647C201.029 271.974 201.188 271.267 201.294 270.524C201.435 269.746 201.542 268.914 201.612 268.03C201.683 267.535 201.789 267.199 201.931 267.022C202.108 266.845 202.337 266.756 202.621 266.756C202.904 266.756 203.257 266.916 203.682 267.234C204.142 267.552 204.584 267.8 205.008 267.977C205.574 268.189 206.229 268.348 206.972 268.454C207.75 268.561 208.617 268.614 209.572 268.614C210.527 268.614 211.553 268.614 212.65 268.614C213.747 268.614 214.861 268.614 215.993 268.614C216.771 268.614 217.691 268.614 218.752 268.614C219.814 268.578 220.91 268.561 222.042 268.561C223.21 268.525 224.307 268.49 225.332 268.454C226.394 268.419 227.314 268.401 228.092 268.401C228.304 268.401 228.499 268.561 228.676 268.879C228.888 269.197 228.959 269.427 228.888 269.569L225.386 274.822C223.97 276.874 222.608 278.891 221.299 280.872C220.026 282.853 218.77 284.816 217.532 286.762C216.329 288.708 215.109 290.671 213.87 292.652C212.632 294.598 211.359 296.579 210.05 298.596C209.767 299.055 209.625 299.445 209.625 299.763C209.625 299.975 209.714 300.152 209.89 300.294C210.067 300.4 210.315 300.471 210.633 300.506C211.199 300.541 211.925 300.577 212.809 300.612C213.693 300.647 214.525 300.665 215.303 300.665C216.683 300.665 217.956 300.63 219.124 300.559C220.291 300.453 221.388 300.276 222.414 300.028C224.572 299.462 226.252 297.676 227.455 294.669C227.561 294.421 227.703 294.227 227.88 294.085C228.092 293.908 228.304 293.82 228.516 293.82C228.976 293.82 229.206 294.067 229.206 294.563C229.206 294.881 229.135 295.376 228.994 296.048C228.852 296.685 228.676 297.393 228.463 298.171C228.286 298.949 228.092 299.71 227.88 300.453C227.667 301.16 227.49 301.762 227.349 302.257C227.243 302.54 227.084 302.77 226.871 302.947C226.659 303.124 226.394 303.212 226.075 303.212ZM29.7934 343.743C26.5033 343.743 23.7616 343.159 21.5682 341.992C19.3749 340.824 17.7298 339.197 16.6332 337.11C15.5365 335.023 14.9881 332.582 14.9881 329.787V314.292C14.9881 313.23 14.7405 312.328 14.2452 311.585C13.7853 310.842 13.1662 310.365 12.3879 310.153C11.3266 309.87 10.796 309.48 10.796 308.985C10.796 308.773 10.9375 308.614 11.2205 308.508C11.5035 308.366 11.8573 308.295 12.2818 308.295C13.2724 308.295 14.2983 308.331 15.3596 308.401C16.4563 308.472 17.5176 308.508 18.5435 308.508C19.4633 308.508 20.5069 308.49 21.6744 308.454C22.8772 308.384 23.9031 308.348 24.7522 308.348C25.1767 308.348 25.5128 308.401 25.7604 308.508C26.0434 308.614 26.1849 308.791 26.1849 309.038C26.1849 309.392 25.955 309.657 25.4951 309.834C25.0706 309.976 24.5576 310.17 23.9562 310.418C23.4609 310.63 22.9833 311.072 22.5234 311.745C22.0989 312.381 21.8866 313.266 21.8866 314.398V328.672C21.8866 331.219 22.3112 333.324 23.1602 334.987C24.0092 336.614 25.1413 337.817 26.5564 338.596C27.9715 339.374 29.5634 339.763 31.3323 339.763C34.6931 339.763 37.1871 338.702 38.8145 336.579C40.4418 334.456 41.2555 331.414 41.2555 327.452C41.2555 326.567 41.2555 325.524 41.2555 324.321C41.2555 323.118 41.2378 321.88 41.2024 320.606C41.2024 319.297 41.1847 318.059 41.1493 316.892C41.1493 315.512 41.0432 314.398 40.831 313.549C40.6541 312.664 40.3887 311.974 40.035 311.479C39.6812 310.949 39.1859 310.542 38.5491 310.259C38.1954 310.117 37.7709 309.958 37.2756 309.781C36.8157 309.604 36.5857 309.374 36.5857 309.091C36.5857 308.808 36.7272 308.614 37.0103 308.508C37.2933 308.401 37.6647 308.348 38.1246 308.348C39.2567 308.348 40.1234 308.366 40.7248 308.401C41.3616 308.437 42.0868 308.454 42.9005 308.454C43.5019 308.454 44.0326 308.454 44.4925 308.454C44.9877 308.419 45.4653 308.384 45.9252 308.348C46.3851 308.313 46.9158 308.295 47.5172 308.295C47.9417 308.295 48.2778 308.348 48.5254 308.454C48.7731 308.525 48.8969 308.702 48.8969 308.985C48.8969 309.48 48.3839 309.852 47.358 310.099C46.2613 310.383 45.5007 310.895 45.0762 311.638C44.6517 312.381 44.404 313.354 44.3333 314.557C44.1918 317.352 44.0856 319.917 44.0149 322.251C43.9795 324.586 43.9441 326.939 43.9087 329.309C43.8734 332.139 43.2189 334.651 41.9453 336.844C40.7071 339.002 39.0267 340.701 36.9041 341.939C34.7815 343.142 32.4113 343.743 29.7934 343.743ZM85.2566 343.955C84.8321 343.955 84.1245 343.69 83.134 343.159C82.1434 342.629 81.1352 341.709 80.1092 340.4C79.5078 339.728 78.7649 338.914 77.8805 337.959C77.0315 336.968 76.0763 335.889 75.015 334.722C73.989 333.554 72.9101 332.334 71.778 331.06C70.6459 329.787 69.5139 328.513 68.3818 327.24C67.2851 325.966 66.2061 324.746 65.1448 323.578C64.0835 322.411 63.1107 321.349 62.2262 320.394C61.3418 319.404 60.5989 318.555 59.9975 317.847C59.856 317.67 59.6968 317.529 59.5199 317.423C59.3784 317.281 59.2546 317.21 59.1484 317.21C59.0069 317.21 58.9008 317.334 58.8301 317.582C58.7593 317.829 58.7239 318.059 58.7239 318.272C58.7239 319.899 58.7239 321.827 58.7239 324.056C58.7593 326.284 58.777 328.549 58.777 330.848C58.777 333.148 58.777 335.27 58.777 337.216C58.777 338.313 59.0954 339.215 59.7322 339.922C60.3689 340.63 61.3772 341.143 62.7569 341.461C63.1814 341.532 63.5352 341.656 63.8182 341.833C64.1366 341.974 64.2958 342.186 64.2958 342.469C64.2958 342.717 64.1543 342.894 63.8713 343C63.5882 343.106 63.2699 343.159 62.9161 343.159C61.9609 343.159 61.2003 343.142 60.6343 343.106C60.0682 343.071 59.5553 343.035 59.0954 343C58.6355 342.965 58.0518 342.947 57.3442 342.947C56.6013 342.947 55.9291 342.965 55.3277 343C54.7617 343.035 54.2487 343.071 53.7888 343.106C53.3289 343.177 52.8867 343.212 52.4622 343.212C52.1084 343.212 51.7901 343.142 51.507 343C51.224 342.894 51.0825 342.735 51.0825 342.522C51.0825 342.239 51.2063 342.027 51.454 341.886C51.737 341.709 52.1084 341.55 52.5683 341.408C53.4881 341.125 54.1603 340.612 54.5848 339.869C55.0447 339.091 55.3277 338.171 55.4339 337.11C55.5754 335.765 55.7169 334.014 55.8584 331.856C55.9999 329.663 56.1237 327.204 56.2298 324.48C56.3714 321.756 56.4421 318.944 56.4421 316.043C56.4421 314.203 55.9645 312.877 55.0093 312.063C54.0895 311.249 52.9221 310.595 51.507 310.099C51.2594 310.029 50.941 309.887 50.5519 309.675C50.1627 309.463 49.9681 309.197 49.9681 308.879C49.9681 308.561 50.1096 308.348 50.3927 308.242C50.6757 308.136 50.9764 308.083 51.2948 308.083C52.0377 308.083 52.7806 308.101 53.5235 308.136C54.2664 308.171 55.0093 308.207 55.7523 308.242C56.5306 308.242 57.3265 308.26 58.1402 308.295C58.9892 308.331 59.8914 308.348 60.8465 308.348C61.1649 308.348 61.3949 308.419 61.5364 308.561C61.7133 308.667 61.8725 308.826 62.014 309.038C62.58 309.71 63.3052 310.559 64.1896 311.585C65.0741 312.576 66.0292 313.69 67.0552 314.928C68.1165 316.131 69.2132 317.405 70.3452 318.749C71.5127 320.093 72.6624 321.438 73.7945 322.782C74.9619 324.126 76.0763 325.418 77.1376 326.656C78.1989 327.859 79.1541 328.973 80.0031 329.999C80.8875 330.99 81.6128 331.803 82.1788 332.44C82.3203 332.582 82.4795 332.758 82.6564 332.971C82.8686 333.183 83.0455 333.289 83.187 333.289C83.4701 333.289 83.6292 332.988 83.6646 332.387C83.6646 331.467 83.6646 330.3 83.6646 328.885C83.6646 327.434 83.6646 325.842 83.6646 324.109C83.7 322.34 83.7 320.536 83.6646 318.696C83.6646 316.856 83.6469 315.088 83.6116 313.39C83.5762 312.505 83.2047 311.815 82.4972 311.32C81.825 310.789 80.976 310.418 79.9501 310.206C79.5255 310.099 79.1187 309.976 78.7295 309.834C78.3758 309.657 78.1989 309.41 78.1989 309.091C78.1989 308.844 78.3758 308.667 78.7295 308.561C79.1187 308.454 79.4725 308.401 79.7909 308.401C80.4984 308.401 81.0821 308.401 81.542 308.401C82.0373 308.401 82.4972 308.419 82.9217 308.454C83.3462 308.454 83.7884 308.454 84.2483 308.454C85.0266 308.454 85.6634 308.454 86.1587 308.454C86.654 308.419 87.1846 308.384 87.7507 308.348C88.3521 308.313 89.1304 308.295 90.0855 308.295C90.5101 308.295 90.8461 308.366 91.0938 308.508C91.3768 308.614 91.5183 308.773 91.5183 308.985C91.5183 309.516 91.0053 309.887 89.9794 310.099C88.7412 310.347 87.8568 310.683 87.3261 311.108C86.8309 311.532 86.5655 312.24 86.5302 313.23C86.5302 314.115 86.5125 315.247 86.4771 316.627C86.4771 318.006 86.4594 319.51 86.424 321.137C86.3886 322.764 86.3356 324.427 86.2648 326.125C86.2294 327.823 86.1941 329.486 86.1587 331.113C86.1587 332.741 86.1587 334.209 86.1587 335.518C86.1587 336.367 86.1941 337.234 86.2648 338.118C86.3356 339.002 86.4063 339.798 86.4771 340.506C86.5832 341.178 86.6363 341.656 86.6363 341.939C86.6363 342.717 86.5125 343.248 86.2648 343.531C86.0172 343.814 85.6811 343.955 85.2566 343.955ZM94.1562 343.212C93.8378 343.212 93.5548 343.142 93.3072 343C93.0595 342.894 92.9357 342.735 92.9357 342.522C92.9357 341.992 93.3779 341.638 94.2624 341.461C95.6067 341.178 96.5795 340.789 97.1809 340.294C97.7824 339.798 98.0831 338.985 98.0831 337.853V313.761C98.0831 312.594 97.8354 311.762 97.3401 311.267C96.8449 310.772 95.9074 310.383 94.5277 310.099C93.6433 309.923 93.201 309.551 93.201 308.985C93.201 308.773 93.3249 308.614 93.5725 308.508C93.8201 308.366 94.1032 308.295 94.4215 308.295C95.2706 308.295 96.1019 308.313 96.9156 308.348C97.7293 308.384 98.5076 308.419 99.2505 308.454C100.029 308.49 100.807 308.508 101.585 308.508C102.328 308.508 103.071 308.49 103.814 308.454C104.592 308.419 105.388 308.384 106.202 308.348C107.016 308.313 107.847 308.295 108.696 308.295C109.05 308.295 109.333 308.366 109.545 308.508C109.757 308.614 109.864 308.791 109.864 309.038C109.864 309.321 109.74 309.551 109.492 309.728C109.28 309.87 108.961 309.993 108.537 310.099C107.122 310.453 106.167 310.878 105.671 311.373C105.176 311.868 104.928 312.682 104.928 313.814V337.8C104.928 338.896 105.211 339.692 105.778 340.188C106.379 340.683 107.352 341.107 108.696 341.461C109.156 341.567 109.492 341.691 109.704 341.833C109.952 341.974 110.076 342.186 110.076 342.469C110.076 342.717 109.97 342.894 109.757 343C109.545 343.106 109.262 343.159 108.908 343.159C108.059 343.159 107.21 343.142 106.361 343.106C105.512 343.071 104.681 343.035 103.867 343C103.089 342.965 102.328 342.947 101.585 342.947C100.807 342.947 100.011 342.965 99.1974 343C98.3838 343.035 97.5524 343.071 96.7034 343.106C95.8543 343.177 95.0053 343.212 94.1562 343.212ZM122.039 343.212C121.685 343.212 121.367 343.142 121.084 343C120.836 342.894 120.713 342.735 120.713 342.522C120.713 342.239 120.836 342.009 121.084 341.833C121.332 341.656 121.685 341.532 122.145 341.461C123.49 341.178 124.48 340.789 125.117 340.294C125.754 339.763 126.072 338.914 126.072 337.747V316.255C126.072 314.805 126.037 313.708 125.966 312.965C125.895 312.222 125.789 311.727 125.648 311.479C125.541 311.196 125.365 311.037 125.117 311.002C124.763 310.86 124.321 310.772 123.79 310.736C123.26 310.701 122.747 310.683 122.251 310.683H120.606C119.58 310.683 118.59 310.931 117.635 311.426C116.68 311.886 115.937 312.523 115.406 313.336C115.264 313.549 115.035 313.849 114.716 314.239C114.433 314.628 114.115 314.982 113.761 315.3C113.443 315.618 113.106 315.777 112.753 315.777C112.505 315.777 112.328 315.689 112.222 315.512C112.151 315.335 112.116 315.141 112.116 314.928C112.116 314.504 112.222 314.079 112.434 313.655C113.036 312.452 113.478 311.408 113.761 310.524C114.079 309.604 114.292 308.525 114.398 307.287C114.468 306.756 114.61 306.42 114.822 306.279C115.07 306.102 115.318 306.013 115.565 306.013C115.777 306.013 116.025 306.243 116.308 306.703C116.626 307.128 116.909 307.482 117.157 307.765C117.476 308.083 118.042 308.331 118.855 308.508C119.669 308.649 120.359 308.72 120.925 308.72L140.506 308.667C141.496 308.667 142.328 308.596 143 308.454C143.672 308.278 144.203 308.101 144.592 307.924C145.123 307.605 145.547 307.287 145.865 306.969C146.184 306.615 146.555 306.438 146.98 306.438C147.157 306.438 147.281 306.544 147.351 306.756C147.457 306.933 147.511 307.163 147.511 307.446C147.511 307.623 147.493 307.835 147.457 308.083C147.422 308.295 147.387 308.49 147.351 308.667C147.21 309.339 147.068 309.94 146.927 310.471C146.785 310.966 146.661 311.444 146.555 311.904C146.485 312.328 146.449 312.824 146.449 313.39V314.292C146.449 314.787 146.378 315.211 146.237 315.565C146.095 315.919 145.865 316.096 145.547 316.096C145.264 316.096 145.016 315.937 144.804 315.618C144.627 315.265 144.433 314.734 144.22 314.026C143.902 312.894 143.371 312.063 142.628 311.532C141.886 310.966 140.718 310.683 139.126 310.683H135.518C134.846 310.683 134.315 310.807 133.926 311.055C133.572 311.302 133.307 311.851 133.13 312.7C132.988 313.513 132.918 314.787 132.918 316.52V337.693C132.918 338.826 133.236 339.657 133.873 340.188C134.509 340.683 135.518 341.107 136.897 341.461C137.322 341.567 137.658 341.691 137.906 341.833C138.153 341.974 138.277 342.186 138.277 342.469C138.277 342.717 138.153 342.894 137.906 343C137.693 343.106 137.41 343.159 137.057 343.159C136.208 343.159 135.359 343.142 134.51 343.106C133.66 343.071 132.811 343.035 131.962 343C131.149 342.965 130.353 342.947 129.574 342.947C128.796 342.947 127.982 342.965 127.133 343C126.32 343.035 125.471 343.071 124.586 343.106C123.737 343.177 122.888 343.212 122.039 343.212ZM149.979 343.265C149.59 343.265 149.272 343.195 149.024 343.053C148.812 342.912 148.706 342.735 148.706 342.522C148.706 342.063 149.166 341.726 150.085 341.514C151.359 341.196 152.261 340.807 152.792 340.347C153.358 339.851 153.641 339.02 153.641 337.853V313.814C153.641 312.611 153.393 311.762 152.898 311.267C152.438 310.772 151.554 310.383 150.245 310.099C149.749 309.993 149.396 309.852 149.183 309.675C148.971 309.463 148.865 309.25 148.865 309.038C148.865 308.791 148.971 308.614 149.183 308.508C149.431 308.366 149.749 308.295 150.138 308.295C151.164 308.295 152.137 308.313 153.057 308.348C154.012 308.384 154.932 308.419 155.816 308.454C156.701 308.49 157.621 308.508 158.576 308.508C160.203 308.508 161.919 308.49 163.723 308.454C165.563 308.419 167.208 308.401 168.658 308.401C169.826 308.366 170.781 308.313 171.524 308.242C172.302 308.171 172.762 308.136 172.904 308.136C173.151 308.136 173.399 308.189 173.646 308.295C173.929 308.401 174.089 308.614 174.124 308.932C174.266 310.099 174.442 311.249 174.655 312.381C174.867 313.513 174.973 314.504 174.973 315.353C174.973 315.671 174.885 315.919 174.708 316.096C174.566 316.237 174.407 316.308 174.23 316.308C174.053 316.308 173.894 316.255 173.753 316.149C173.611 316.007 173.487 315.813 173.381 315.565C173.098 314.752 172.833 314.044 172.585 313.443C172.337 312.841 172.054 312.381 171.736 312.063C171.276 311.568 170.746 311.178 170.144 310.895C169.543 310.612 168.817 310.471 167.968 310.471H163.033C162.397 310.471 161.813 310.666 161.282 311.055C160.752 311.408 160.486 311.921 160.486 312.594V322.994C160.486 323.384 160.592 323.684 160.805 323.896C161.052 324.109 161.335 324.215 161.654 324.215H166.536C167.491 324.215 168.163 323.95 168.552 323.419C168.977 322.888 169.33 322.163 169.613 321.243C169.861 320.536 170.197 320.182 170.622 320.182C170.799 320.182 170.958 320.288 171.099 320.5C171.241 320.677 171.312 320.925 171.312 321.243C171.276 321.597 171.241 322.022 171.205 322.517C171.17 323.012 171.135 323.507 171.099 324.003C171.099 324.498 171.099 324.94 171.099 325.329C171.099 325.754 171.099 326.231 171.099 326.762C171.135 327.293 171.152 327.823 171.152 328.354C171.188 328.849 171.223 329.274 171.258 329.628C171.294 330.017 171.258 330.317 171.152 330.53C171.082 330.742 170.94 330.848 170.728 330.848C170.162 330.848 169.755 330.353 169.507 329.362C169.224 328.372 168.888 327.629 168.499 327.133C168.11 326.638 167.579 326.391 166.907 326.391H161.919C161.459 326.391 161.105 326.479 160.858 326.656C160.61 326.833 160.486 327.169 160.486 327.664V337.747C160.486 338.914 160.734 339.728 161.229 340.188C161.724 340.647 162.485 340.877 163.511 340.877H167.862C168.747 340.877 169.543 340.789 170.25 340.612C170.993 340.435 171.63 340.152 172.161 339.763C172.762 339.338 173.293 338.772 173.753 338.065C174.248 337.322 174.725 336.508 175.185 335.624C175.327 335.341 175.468 335.164 175.61 335.093C175.751 334.987 175.928 334.934 176.14 334.934C176.317 334.969 176.441 335.076 176.512 335.252C176.618 335.429 176.671 335.624 176.671 335.836C176.671 336.331 176.583 336.968 176.406 337.747C176.229 338.525 175.999 339.338 175.716 340.188C175.468 341.001 175.238 341.762 175.026 342.469C174.92 342.717 174.778 342.894 174.602 343C174.425 343.142 174.212 343.212 173.965 343.212C173.116 343.212 172.019 343.195 170.675 343.159C169.366 343.159 167.933 343.142 166.376 343.106C164.82 343.071 163.228 343.035 161.601 343C159.973 343 158.417 343 156.931 343C156.188 343 155.427 343.018 154.649 343.053C153.906 343.088 153.146 343.124 152.367 343.159C151.589 343.23 150.793 343.265 149.979 343.265ZM197.806 343.371C196.851 343.371 195.702 343.336 194.357 343.265C193.013 343.195 191.651 343.124 190.271 343.053C188.927 343.018 187.813 343 186.928 343C186.221 343 185.495 343 184.752 343C184.045 343.035 183.302 343.071 182.524 343.106C181.745 343.177 180.914 343.212 180.03 343.212C179.711 343.212 179.428 343.142 179.181 343C178.933 342.894 178.809 342.717 178.809 342.469C178.809 342.151 178.915 341.921 179.127 341.779C179.375 341.638 179.729 341.532 180.189 341.461C181.533 341.178 182.453 340.789 182.948 340.294C183.443 339.798 183.691 338.967 183.691 337.8V313.814C183.691 312.611 183.443 311.762 182.948 311.267C182.488 310.772 181.569 310.383 180.189 310.099C179.729 310.029 179.375 309.923 179.127 309.781C178.915 309.604 178.809 309.357 178.809 309.038C178.809 308.791 178.933 308.614 179.181 308.508C179.428 308.366 179.711 308.295 180.03 308.295C180.879 308.295 181.692 308.313 182.471 308.348C183.249 308.348 184.01 308.384 184.752 308.454C185.531 308.49 186.309 308.508 187.087 308.508C187.618 308.508 188.325 308.49 189.21 308.454C190.13 308.384 191.103 308.331 192.129 308.295C193.19 308.225 194.18 308.171 195.1 308.136C196.02 308.065 196.763 308.03 197.329 308.03C200.301 308.03 202.972 308.454 205.342 309.304C207.712 310.153 209.729 311.338 211.391 312.859C213.089 314.38 214.381 316.184 215.265 318.272C216.149 320.359 216.592 322.623 216.592 325.064C216.592 327.505 216.149 329.822 215.265 332.015C214.381 334.209 213.107 336.155 211.444 337.853C209.817 339.551 207.836 340.895 205.501 341.886C203.201 342.876 200.637 343.371 197.806 343.371ZM197.011 340.93C199.558 340.93 201.716 340.329 203.484 339.126C205.289 337.888 206.651 336.172 207.571 333.979C208.49 331.75 208.95 329.185 208.95 326.284C208.95 323.879 208.632 321.703 207.995 319.757C207.394 317.776 206.527 316.114 205.395 314.769C204.298 313.39 202.972 312.328 201.415 311.585C199.894 310.842 198.231 310.471 196.427 310.471C195.153 310.471 194.074 310.506 193.19 310.577C192.341 310.648 191.686 310.86 191.226 311.214C190.802 311.532 190.59 312.081 190.59 312.859V336.208C190.59 337.446 190.855 338.419 191.386 339.126C191.952 339.798 192.712 340.276 193.667 340.559C194.658 340.807 195.772 340.93 197.011 340.93Z" fill="#00A9E2"/>
<path d="M232.5 123.5C232.5 187.77 181.93 239.5 120 239.5C58.0698 239.5 7.5 187.77 7.5 123.5C7.5 59.2303 58.0698 7.5 120 7.5C181.93 7.5 232.5 59.2303 232.5 123.5Z" stroke="#00A9E2" stroke-width="15"/>
<path d="M122.449 124.952C114.297 124.952 106.66 123.765 99.5395 121.392C92.4189 118.915 86.1754 115.458 80.8091 111.02C75.4428 106.48 71.2633 101.113 68.2706 94.9216C65.2779 88.6265 63.7815 81.6607 63.7815 74.024C63.7815 67.0066 65.1747 60.2987 67.961 53.9005C70.7473 47.399 74.8237 41.6199 80.1899 36.5632C85.6594 31.5066 92.3157 27.4818 100.159 24.4891C108.002 21.4964 116.928 20 126.939 20C130.138 20 133.44 20.258 136.846 20.774C140.354 21.29 143.708 21.9608 146.907 22.7863C150.21 23.6119 153.048 24.5407 155.421 25.5727C156.247 25.9855 156.969 26.5015 157.588 27.1206C158.311 27.7398 158.723 28.617 158.827 29.7522C159.343 33.4673 159.652 36.976 159.755 40.2784C159.962 43.4775 160.065 46.2122 160.065 48.4826C160.065 49.721 159.601 50.5465 158.672 50.9593C157.846 51.3721 156.918 51.3721 155.886 50.9593C154.957 50.5465 154.286 49.721 153.873 48.4826C153.151 46.4186 152.325 44.2515 151.396 41.9811C150.571 39.7108 149.281 37.75 147.527 36.0989C145.463 33.9317 142.625 32.1257 139.013 30.681C135.401 29.2362 130.912 28.5138 125.545 28.5138C120.385 28.5138 115.742 29.649 111.614 31.9193C107.486 34.0865 103.977 37.1308 101.087 41.0524C98.198 44.8707 95.9792 49.2566 94.4312 54.2101C92.8833 59.0604 92.1093 64.1687 92.1093 69.5349C92.1093 76.4492 92.7801 82.7959 94.1216 88.5749C95.4632 94.2508 97.5272 99.1527 100.314 103.281C103.1 107.409 106.557 110.608 110.685 112.878C114.916 115.045 119.869 116.129 125.545 116.129C133.285 116.129 139.477 114.529 144.121 111.33C148.868 108.131 152.841 103.074 156.04 96.16C156.866 94.3024 158.053 93.4252 159.601 93.5284C161.149 93.6316 161.923 94.5088 161.923 96.16C161.923 97.6048 161.768 99.3075 161.458 101.268C161.252 103.126 160.891 105.19 160.375 107.46C159.962 109.627 159.394 111.949 158.672 114.426C158.362 115.561 157.846 116.49 157.124 117.212C156.402 117.935 155.576 118.554 154.647 119.07C150.726 120.824 146.082 122.217 140.715 123.249C135.349 124.385 129.26 124.952 122.449 124.952Z" fill="#00A9E2"/>
<path d="M115.501 226C105.697 226 97.4928 224.246 90.8881 220.737C84.3867 217.228 79.4848 212.378 76.1824 206.186C72.8801 199.891 71.2289 192.564 71.2289 184.205V140.862C71.2289 138.179 70.5582 135.599 69.2166 133.122C67.9782 130.542 65.9659 128.891 63.1795 128.169C60.3932 127.446 59 126.311 59 124.763C59 124.041 59.3612 123.473 60.0836 123.06C60.9092 122.647 61.8895 122.441 63.0247 122.441C66.4302 122.441 70.0422 122.596 73.8605 122.905C77.6788 123.112 81.1359 123.215 84.2319 123.215C87.2246 123.215 90.9397 123.112 95.3772 122.905C99.9179 122.699 103.788 122.596 106.987 122.596C108.225 122.596 109.206 122.802 109.928 123.215C110.65 123.525 111.012 124.092 111.012 124.918C111.012 126.156 110.135 127.085 108.38 127.704C106.729 128.22 105.078 128.891 103.427 129.716C101.775 130.439 100.382 131.78 99.2471 133.741C98.2152 135.599 97.6992 138.282 97.6992 141.791V181.728C97.6992 188.539 98.7828 194.164 100.95 198.601C103.117 202.935 105.955 206.134 109.464 208.198C113.076 210.262 116.997 211.294 121.228 211.294C130.31 211.294 137.121 208.714 141.661 203.555C146.202 198.291 148.472 190.036 148.472 178.787C148.472 176.001 148.472 172.956 148.472 169.654C148.576 166.352 148.627 162.998 148.627 159.592C148.73 156.187 148.73 152.988 148.627 149.995C148.524 144.938 148.163 141.12 147.544 138.54C146.925 135.857 145.996 133.844 144.757 132.503C143.622 131.058 142.023 129.82 139.959 128.788C138.823 128.169 137.482 127.653 135.934 127.24C134.386 126.724 133.612 125.95 133.612 124.918C133.612 124.092 134.025 123.525 134.85 123.215C135.676 122.802 136.811 122.596 138.256 122.596C142.281 122.596 145.273 122.699 147.234 122.905C149.195 123.009 151.414 123.06 153.89 123.06C155.851 123.06 157.451 123.009 158.689 122.905C160.031 122.802 161.372 122.699 162.714 122.596C164.159 122.493 165.965 122.441 168.132 122.441C169.267 122.441 170.196 122.596 170.918 122.905C171.64 123.215 172.002 123.834 172.002 124.763C172.002 126.208 170.66 127.343 167.977 128.169C164.365 129.2 161.837 130.852 160.392 133.122C159.05 135.289 158.276 138.334 158.07 142.255C157.76 149.788 157.554 156.754 157.451 163.153C157.347 169.551 157.296 176.104 157.296 182.812C157.296 191.274 155.438 198.756 151.723 205.257C148.008 211.759 142.951 216.867 136.553 220.582C130.258 224.194 123.241 226 115.501 226Z" fill="#00A9E2"/>
</svg>
