<svg width="240" height="282" viewBox="0 0 240 282" fill="none" xmlns="http://www.w3.org/2000/svg">
<ellipse cx="120" cy="141.5" rx="120" ry="123.5" fill="black"/>
<path d="M126.176 147.016C118.592 147.016 111.488 145.912 104.864 143.704C98.24 141.4 92.432 138.184 87.44 134.056C82.448 129.832 78.56 124.84 75.776 119.08C72.992 113.224 71.6 106.744 71.6 99.64C71.6 93.112 72.896 86.872 75.488 80.92C78.08 74.872 81.872 69.496 86.864 64.792C91.952 60.088 98.144 56.344 105.44 53.56C112.736 50.776 121.04 49.384 130.352 49.384C133.328 49.384 136.4 49.624 139.568 50.104C142.832 50.584 145.952 51.208 148.928 51.976C152 52.744 154.64 53.608 156.848 54.568C157.616 54.952 158.288 55.432 158.864 56.008C159.536 56.584 159.92 57.4 160.016 58.456C160.496 61.912 160.784 65.176 160.88 68.248C161.072 71.224 161.168 73.768 161.168 75.88C161.168 77.032 160.736 77.8 159.872 78.184C159.104 78.568 158.24 78.568 157.28 78.184C156.416 77.8 155.792 77.032 155.408 75.88C154.736 73.96 153.968 71.944 153.104 69.832C152.336 67.72 151.136 65.896 149.504 64.36C147.584 62.344 144.944 60.664 141.584 59.32C138.224 57.976 134.048 57.304 129.056 57.304C124.256 57.304 119.936 58.36 116.096 60.472C112.256 62.488 108.992 65.32 106.304 68.968C103.616 72.52 101.552 76.6 100.112 81.208C98.672 85.72 97.952 90.472 97.952 95.464C97.952 101.896 98.576 107.8 99.824 113.176C101.072 118.456 102.992 123.016 105.584 126.856C108.176 130.696 111.392 133.672 115.232 135.784C119.168 137.8 123.776 138.808 129.056 138.808C136.256 138.808 142.016 137.32 146.336 134.344C150.752 131.368 154.448 126.664 157.424 120.232C158.192 118.504 159.296 117.688 160.736 117.784C162.176 117.88 162.896 118.696 162.896 120.232C162.896 121.576 162.752 123.16 162.464 124.984C162.272 126.712 161.936 128.632 161.456 130.744C161.072 132.76 160.544 134.92 159.872 137.224C159.584 138.28 159.104 139.144 158.432 139.816C157.76 140.488 156.992 141.064 156.128 141.544C152.48 143.176 148.16 144.472 143.168 145.432C138.176 146.488 132.512 147.016 126.176 147.016Z" fill="#00A9E2"/>
<path d="M119.712 241.016C110.592 241.016 102.96 239.384 96.816 236.12C90.768 232.856 86.208 228.344 83.136 222.584C80.064 216.728 78.528 209.912 78.528 202.136V161.816C78.528 159.32 77.904 156.92 76.656 154.616C75.504 152.216 73.632 150.68 71.04 150.008C68.448 149.336 67.152 148.28 67.152 146.84C67.152 146.168 67.488 145.64 68.16 145.256C68.928 144.872 69.84 144.68 70.896 144.68C74.064 144.68 77.424 144.824 80.976 145.112C84.528 145.304 87.744 145.4 90.624 145.4C93.408 145.4 96.864 145.304 100.992 145.112C105.216 144.92 108.816 144.824 111.792 144.824C112.944 144.824 113.856 145.016 114.528 145.4C115.2 145.688 115.536 146.216 115.536 146.984C115.536 148.136 114.72 149 113.088 149.576C111.552 150.056 110.016 150.68 108.48 151.448C106.944 152.12 105.648 153.368 104.592 155.192C103.632 156.92 103.152 159.416 103.152 162.68V199.832C103.152 206.168 104.16 211.4 106.176 215.528C108.192 219.56 110.832 222.536 114.096 224.456C117.456 226.376 121.104 227.336 125.04 227.336C133.488 227.336 139.824 224.936 144.048 220.136C148.272 215.24 150.384 207.56 150.384 197.096C150.384 194.504 150.384 191.672 150.384 188.6C150.48 185.528 150.528 182.408 150.528 179.24C150.624 176.072 150.624 173.096 150.528 170.312C150.432 165.608 150.096 162.056 149.52 159.656C148.944 157.16 148.08 155.288 146.928 154.04C145.872 152.696 144.384 151.544 142.464 150.584C141.408 150.008 140.16 149.528 138.72 149.144C137.28 148.664 136.56 147.944 136.56 146.984C136.56 146.216 136.944 145.688 137.712 145.4C138.48 145.016 139.536 144.824 140.88 144.824C144.624 144.824 147.408 144.92 149.232 145.112C151.056 145.208 153.12 145.256 155.424 145.256C157.248 145.256 158.736 145.208 159.888 145.112C161.136 145.016 162.384 144.92 163.632 144.824C164.976 144.728 166.656 144.68 168.672 144.68C169.728 144.68 170.592 144.824 171.264 145.112C171.936 145.4 172.272 145.976 172.272 146.84C172.272 148.184 171.024 149.24 168.528 150.008C165.168 150.968 162.816 152.504 161.472 154.616C160.224 156.632 159.504 159.464 159.312 163.112C159.024 170.12 158.832 176.6 158.736 182.552C158.64 188.504 158.592 194.6 158.592 200.84C158.592 208.712 156.864 215.672 153.408 221.72C149.952 227.768 145.248 232.52 139.296 235.976C133.44 239.336 126.912 241.016 119.712 241.016Z" fill="#00A9E2"/>
</svg>
