<svg width="240" height="247" viewBox="0 0 240 247" fill="none" xmlns="http://www.w3.org/2000/svg">
<path d="M122.449 124.952C114.297 124.952 106.66 123.765 99.5395 121.392C92.4189 118.915 86.1754 115.458 80.8091 111.02C75.4428 106.48 71.2633 101.113 68.2706 94.9216C65.2779 88.6265 63.7815 81.6607 63.7815 74.024C63.7815 67.0066 65.1747 60.2987 67.961 53.9005C70.7473 47.399 74.8237 41.6199 80.1899 36.5632C85.6594 31.5066 92.3157 27.4818 100.159 24.4891C108.002 21.4964 116.928 20 126.939 20C130.138 20 133.44 20.258 136.846 20.774C140.354 21.29 143.708 21.9608 146.907 22.7863C150.21 23.6119 153.048 24.5407 155.421 25.5727C156.247 25.9855 156.969 26.5015 157.588 27.1206C158.311 27.7398 158.723 28.617 158.827 29.7522C159.343 33.4673 159.652 36.976 159.755 40.2784C159.962 43.4775 160.065 46.2122 160.065 48.4826C160.065 49.721 159.601 50.5465 158.672 50.9593C157.846 51.3721 156.918 51.3721 155.886 50.9593C154.957 50.5465 154.286 49.721 153.873 48.4826C153.151 46.4186 152.325 44.2515 151.396 41.9811C150.571 39.7108 149.281 37.75 147.527 36.0989C145.463 33.9317 142.625 32.1257 139.013 30.681C135.401 29.2362 130.912 28.5138 125.545 28.5138C120.385 28.5138 115.742 29.649 111.614 31.9193C107.486 34.0865 103.977 37.1308 101.088 41.0524C98.198 44.8707 95.9792 49.2566 94.4312 54.2101C92.8833 59.0604 92.1093 64.1687 92.1093 69.5349C92.1093 76.4492 92.7801 82.7959 94.1216 88.5749C95.4632 94.2508 97.5272 99.1527 100.314 103.281C103.1 107.409 106.557 110.608 110.685 112.878C114.916 115.045 119.869 116.129 125.545 116.129C133.285 116.129 139.477 114.529 144.121 111.33C148.868 108.131 152.841 103.074 156.04 96.16C156.866 94.3024 158.053 93.4252 159.601 93.5284C161.149 93.6316 161.923 94.5088 161.923 96.16C161.923 97.6048 161.768 99.3075 161.458 101.268C161.252 103.126 160.891 105.19 160.375 107.46C159.962 109.627 159.394 111.949 158.672 114.426C158.362 115.561 157.846 116.49 157.124 117.212C156.402 117.935 155.576 118.554 154.647 119.07C150.726 120.824 146.082 122.217 140.715 123.249C135.349 124.385 129.26 124.952 122.449 124.952Z" fill="white"/>
<path d="M232.5 123.5C232.5 187.77 181.93 239.5 120 239.5C58.0698 239.5 7.5 187.77 7.5 123.5C7.5 59.2303 58.0698 7.5 120 7.5C181.93 7.5 232.5 59.2303 232.5 123.5Z" stroke="white" stroke-width="15"/>
<path d="M115.501 226C105.697 226 97.4928 224.246 90.8881 220.737C84.3867 217.228 79.4848 212.378 76.1824 206.186C72.8801 199.891 71.2289 192.564 71.2289 184.205V140.862C71.2289 138.179 70.5582 135.599 69.2166 133.122C67.9782 130.542 65.9659 128.891 63.1795 128.168C60.3932 127.446 59 126.311 59 124.763C59 124.041 59.3612 123.473 60.0836 123.06C60.9092 122.647 61.8895 122.441 63.0247 122.441C66.4302 122.441 70.0422 122.596 73.8605 122.905C77.6788 123.112 81.1359 123.215 84.2319 123.215C87.2246 123.215 90.9397 123.112 95.3772 122.905C99.9179 122.699 103.788 122.596 106.987 122.596C108.225 122.596 109.206 122.802 109.928 123.215C110.65 123.525 111.012 124.092 111.012 124.918C111.012 126.156 110.135 127.085 108.38 127.704C106.729 128.22 105.078 128.891 103.427 129.716C101.775 130.439 100.382 131.78 99.2471 133.741C98.2152 135.599 97.6992 138.282 97.6992 141.791V181.728C97.6992 188.539 98.7828 194.163 100.95 198.601C103.117 202.935 105.955 206.134 109.464 208.198C113.076 210.262 116.997 211.294 121.228 211.294C130.31 211.294 137.121 208.714 141.661 203.554C146.202 198.291 148.472 190.036 148.472 178.787C148.472 176.001 148.472 172.956 148.472 169.654C148.576 166.352 148.627 162.998 148.627 159.592C148.73 156.187 148.73 152.988 148.627 149.995C148.524 144.938 148.163 141.12 147.544 138.54C146.925 135.857 145.996 133.844 144.757 132.503C143.622 131.058 142.023 129.82 139.959 128.788C138.824 128.168 137.482 127.653 135.934 127.24C134.386 126.724 133.612 125.95 133.612 124.918C133.612 124.092 134.025 123.525 134.85 123.215C135.676 122.802 136.811 122.596 138.256 122.596C142.281 122.596 145.273 122.699 147.234 122.905C149.195 123.009 151.414 123.06 153.89 123.06C155.851 123.06 157.451 123.009 158.689 122.905C160.031 122.802 161.372 122.699 162.714 122.596C164.159 122.493 165.965 122.441 168.132 122.441C169.267 122.441 170.196 122.596 170.918 122.905C171.64 123.215 172.002 123.834 172.002 124.763C172.002 126.208 170.66 127.343 167.977 128.168C164.365 129.2 161.837 130.852 160.392 133.122C159.05 135.289 158.276 138.333 158.07 142.255C157.76 149.788 157.554 156.754 157.451 163.153C157.347 169.551 157.296 176.104 157.296 182.812C157.296 191.274 155.438 198.756 151.723 205.257C148.008 211.759 142.951 216.867 136.553 220.582C130.258 224.194 123.241 226 115.501 226Z" fill="white"/>
</svg>
