<svg width="248" height="255" viewBox="0 0 248 255" fill="none" xmlns="http://www.w3.org/2000/svg">
<g filter="url(#filter0_d_135_47)">
<path d="M126.449 124.952C118.297 124.952 110.66 123.765 103.54 121.392C96.4189 118.915 90.1754 115.458 84.8091 111.02C79.4428 106.48 75.2633 101.113 72.2706 94.9216C69.2779 88.6265 67.7815 81.6607 67.7815 74.024C67.7815 67.0066 69.1747 60.2987 71.961 53.9005C74.7473 47.399 78.8237 41.6199 84.1899 36.5632C89.6594 31.5066 96.3157 27.4818 104.159 24.4891C112.002 21.4964 120.928 20 130.939 20C134.138 20 137.44 20.258 140.846 20.774C144.354 21.29 147.708 21.9608 150.907 22.7863C154.21 23.6119 157.048 24.5407 159.421 25.5727C160.247 25.9855 160.969 26.5015 161.588 27.1206C162.311 27.7398 162.723 28.617 162.827 29.7522C163.343 33.4673 163.652 36.976 163.755 40.2784C163.962 43.4775 164.065 46.2122 164.065 48.4826C164.065 49.721 163.601 50.5465 162.672 50.9593C161.846 51.3721 160.918 51.3721 159.886 50.9593C158.957 50.5465 158.286 49.721 157.873 48.4826C157.151 46.4186 156.325 44.2515 155.396 41.9811C154.571 39.7108 153.281 37.75 151.527 36.0989C149.463 33.9317 146.625 32.1257 143.013 30.681C139.401 29.2362 134.912 28.5138 129.545 28.5138C124.385 28.5138 119.742 29.649 115.614 31.9193C111.486 34.0865 107.977 37.1308 105.088 41.0524C102.198 44.8707 99.9792 49.2566 98.4312 54.2101C96.8833 59.0604 96.1093 64.1687 96.1093 69.5349C96.1093 76.4492 96.7801 82.7959 98.1216 88.5749C99.4632 94.2508 101.527 99.1527 104.314 103.281C107.1 107.409 110.557 110.608 114.685 112.878C118.916 115.045 123.869 116.129 129.545 116.129C137.285 116.129 143.477 114.529 148.121 111.33C152.868 108.131 156.841 103.074 160.04 96.16C160.866 94.3024 162.053 93.4252 163.601 93.5284C165.149 93.6316 165.923 94.5088 165.923 96.16C165.923 97.6048 165.768 99.3075 165.458 101.268C165.252 103.126 164.891 105.19 164.375 107.46C163.962 109.627 163.394 111.949 162.672 114.426C162.362 115.561 161.846 116.49 161.124 117.212C160.402 117.935 159.576 118.554 158.647 119.07C154.726 120.824 150.082 122.217 144.715 123.249C139.349 124.385 133.26 124.952 126.449 124.952Z" fill="white"/>
</g>
<g filter="url(#filter1_d_135_47)">
<path d="M236.5 123.5C236.5 187.77 185.93 239.5 124 239.5C62.0698 239.5 11.5 187.77 11.5 123.5C11.5 59.2303 62.0698 7.5 124 7.5C185.93 7.5 236.5 59.2303 236.5 123.5Z" stroke="white" stroke-width="15" shape-rendering="crispEdges"/>
</g>
<g filter="url(#filter2_d_135_47)">
<path d="M119.501 226C109.697 226 101.493 224.246 94.8881 220.737C88.3867 217.228 83.4848 212.378 80.1824 206.186C76.8801 199.891 75.2289 192.564 75.2289 184.205V140.862C75.2289 138.179 74.5582 135.599 73.2166 133.122C71.9782 130.542 69.9659 128.891 67.1795 128.168C64.3932 127.446 63 126.311 63 124.763C63 124.041 63.3612 123.473 64.0836 123.06C64.9092 122.647 65.8895 122.441 67.0247 122.441C70.4302 122.441 74.0422 122.596 77.8605 122.905C81.6788 123.112 85.1359 123.215 88.2319 123.215C91.2246 123.215 94.9397 123.112 99.3772 122.905C103.918 122.699 107.788 122.596 110.987 122.596C112.225 122.596 113.206 122.802 113.928 123.215C114.65 123.525 115.012 124.092 115.012 124.918C115.012 126.156 114.135 127.085 112.38 127.704C110.729 128.22 109.078 128.891 107.427 129.716C105.775 130.439 104.382 131.78 103.247 133.741C102.215 135.599 101.699 138.282 101.699 141.791V181.728C101.699 188.539 102.783 194.163 104.95 198.601C107.117 202.935 109.955 206.134 113.464 208.198C117.076 210.262 120.997 211.294 125.228 211.294C134.31 211.294 141.121 208.714 145.661 203.554C150.202 198.291 152.472 190.036 152.472 178.787C152.472 176.001 152.472 172.956 152.472 169.654C152.576 166.352 152.627 162.998 152.627 159.592C152.73 156.187 152.73 152.988 152.627 149.995C152.524 144.938 152.163 141.12 151.544 138.54C150.925 135.857 149.996 133.844 148.757 132.503C147.622 131.058 146.023 129.82 143.959 128.788C142.824 128.168 141.482 127.653 139.934 127.24C138.386 126.724 137.612 125.95 137.612 124.918C137.612 124.092 138.025 123.525 138.85 123.215C139.676 122.802 140.811 122.596 142.256 122.596C146.281 122.596 149.273 122.699 151.234 122.905C153.195 123.009 155.414 123.06 157.89 123.06C159.851 123.06 161.451 123.009 162.689 122.905C164.031 122.802 165.372 122.699 166.714 122.596C168.159 122.493 169.965 122.441 172.132 122.441C173.267 122.441 174.196 122.596 174.918 122.905C175.64 123.215 176.002 123.834 176.002 124.763C176.002 126.208 174.66 127.343 171.977 128.168C168.365 129.2 165.837 130.852 164.392 133.122C163.05 135.289 162.276 138.333 162.07 142.255C161.76 149.788 161.554 156.754 161.451 163.153C161.347 169.551 161.296 176.104 161.296 182.812C161.296 191.274 159.438 198.756 155.723 205.257C152.008 211.759 146.951 216.867 140.553 220.582C134.258 224.194 127.241 226 119.501 226Z" fill="white"/>
</g>
<defs>
<filter id="filter0_d_135_47" x="63.7815" y="20" width="106.141" height="112.952" filterUnits="userSpaceOnUse" color-interpolation-filters="sRGB">
<feFlood flood-opacity="0" result="BackgroundImageFix"/>
<feColorMatrix in="SourceAlpha" type="matrix" values="0 0 0 0 0 0 0 0 0 0 0 0 0 0 0 0 0 0 127 0" result="hardAlpha"/>
<feOffset dy="4"/>
<feGaussianBlur stdDeviation="2"/>
<feComposite in2="hardAlpha" operator="out"/>
<feColorMatrix type="matrix" values="0 0 0 0 0 0 0 0 0 0 0 0 0 0 0 0 0 0 0.25 0"/>
<feBlend mode="normal" in2="BackgroundImageFix" result="effect1_dropShadow_135_47"/>
<feBlend mode="normal" in="SourceGraphic" in2="effect1_dropShadow_135_47" result="shape"/>
</filter>
<filter id="filter1_d_135_47" x="0" y="0" width="248" height="255" filterUnits="userSpaceOnUse" color-interpolation-filters="sRGB">
<feFlood flood-opacity="0" result="BackgroundImageFix"/>
<feColorMatrix in="SourceAlpha" type="matrix" values="0 0 0 0 0 0 0 0 0 0 0 0 0 0 0 0 0 0 127 0" result="hardAlpha"/>
<feOffset dy="4"/>
<feGaussianBlur stdDeviation="2"/>
<feComposite in2="hardAlpha" operator="out"/>
<feColorMatrix type="matrix" values="0 0 0 0 0 0 0 0 0 0 0 0 0 0 0 0 0 0 0.25 0"/>
<feBlend mode="normal" in2="BackgroundImageFix" result="effect1_dropShadow_135_47"/>
<feBlend mode="normal" in="SourceGraphic" in2="effect1_dropShadow_135_47" result="shape"/>
</filter>
<filter id="filter2_d_135_47" x="59" y="122.441" width="121.002" height="111.559" filterUnits="userSpaceOnUse" color-interpolation-filters="sRGB">
<feFlood flood-opacity="0" result="BackgroundImageFix"/>
<feColorMatrix in="SourceAlpha" type="matrix" values="0 0 0 0 0 0 0 0 0 0 0 0 0 0 0 0 0 0 127 0" result="hardAlpha"/>
<feOffset dy="4"/>
<feGaussianBlur stdDeviation="2"/>
<feComposite in2="hardAlpha" operator="out"/>
<feColorMatrix type="matrix" values="0 0 0 0 0 0 0 0 0 0 0 0 0 0 0 0 0 0 0.25 0"/>
<feBlend mode="normal" in2="BackgroundImageFix" result="effect1_dropShadow_135_47"/>
<feBlend mode="normal" in="SourceGraphic" in2="effect1_dropShadow_135_47" result="shape"/>
</filter>
</defs>
</svg>
